<?xml version="1.0" standalone="no"?>
<!DOCTYPE svg PUBLIC "-//W3C//DTD SVG 20010904//EN"
 "http://www.w3.org/TR/2001/REC-SVG-20010904/DTD/svg10.dtd">
<svg version="1.0" xmlns="http://www.w3.org/2000/svg"
 width="16.000000pt" height="16.000000pt" viewBox="0 0 16.000000 16.000000"
 preserveAspectRatio="xMidYMid meet">
<metadata>
Created by potrace 1.11, written by Peter Selinger 2001-2013
</metadata>
<g transform="translate(0.000000,16.000000) scale(0.003206,-0.003206)"
fill="#000000" stroke="none">
<path d="M2328 4985 c-1 -2 -38 -6 -80 -10 -42 -3 -87 -8 -100 -10 -12 -3 -38
-7 -58 -10 -53 -8 -67 -11 -181 -38 -459 -111 -870 -350 -1212 -704 -248 -258
-442 -581 -562 -938 -30 -89 -80 -293 -91 -370 -3 -27 -8 -58 -10 -69 -25
-140 -25 -556 0 -693 2 -10 7 -38 11 -63 4 -25 18 -92 31 -150 168 -726 651
-1335 1321 -1668 65 -32 145 -69 178 -81 33 -13 69 -27 80 -31 89 -36 330
-100 430 -115 192 -28 256 -32 460 -30 110 2 209 5 220 8 11 3 49 8 85 13 36
4 67 8 70 9 3 1 25 5 50 9 220 38 506 140 720 256 262 143 471 310 700 560 54
59 168 214 229 313 56 87 181 326 181 344 0 4 6 20 14 35 34 66 120 352 141
473 4 22 9 49 11 60 19 104 23 198 21 445 -2 157 -7 299 -10 315 -7 32 -16 80
-24 130 -14 89 -87 344 -118 412 -8 17 -15 34 -15 37 0 7 -51 118 -94 207 -31
63 -85 156 -133 229 -13 19 -29 43 -36 54 -33 50 -127 169 -189 238 -117 131
-217 224 -356 329 -268 204 -574 352 -898 433 -103 26 -127 30 -234 46 -36 6
-81 13 -100 16 -37 7 -446 15 -452 9z"/>
</g>
</svg>
